<svg xmlns="http://www.w3.org/2000/svg" xmlns:xlink="http://www.w3.org/1999/xlink" width="500" zoomAndPan="magnify" viewBox="0 0 375 374.999991" height="500" preserveAspectRatio="xMidYMid meet" version="1.0"><defs><g/></defs><rect x="-37.5" width="450" fill="#ffffff" y="-37.499999" height="449.999989" fill-opacity="1"/><rect x="-37.5" width="450" fill="#ffffff" y="-37.499999" height="449.999989" fill-opacity="1"/><rect x="-37.5" width="450" fill="#3bdef7" y="-37.499999" height="449.999989" fill-opacity="1"/><g fill="#000000" fill-opacity="1"><g transform="translate(76.985796, 324.254252)"><g><path d="M 127.257812 -260.46875 L 32 -260.46875 L 32 0 L 69.953125 0 L 69.953125 -86.699219 L 127.257812 -86.699219 C 183.445312 -86.699219 211.722656 -129.863281 211.722656 -173.398438 C 211.722656 -216.933594 183.445312 -260.46875 127.257812 -260.46875 Z M 127.257812 -123.910156 L 69.953125 -123.910156 L 69.953125 -222.515625 L 127.257812 -222.515625 C 158.886719 -222.515625 174.515625 -197.957031 174.515625 -173.027344 C 174.515625 -148.46875 158.886719 -123.910156 127.257812 -123.910156 Z M 127.257812 -123.910156 "/></g></g></g></svg>