<svg xmlns="http://www.w3.org/2000/svg" xmlns:xlink="http://www.w3.org/1999/xlink" width="500" zoomAndPan="magnify" viewBox="0 0 375 374.999991" height="500" preserveAspectRatio="xMidYMid meet" version="1.0"><defs><g/></defs><rect x="-37.5" width="450" fill="#ffffff" y="-37.499999" height="449.999989" fill-opacity="1"/><rect x="-37.5" width="450" fill="#ffffff" y="-37.499999" height="449.999989" fill-opacity="1"/><rect x="-37.5" width="450" fill="#669ce2" y="-37.499999" height="449.999989" fill-opacity="1"/><g fill="#000000" fill-opacity="1"><g transform="translate(33.675005, 169.561252)"><g><path d="M 10.214844 21.808594 L 23.742188 21.808594 L 23.742188 -9.800781 C 30.367188 -0.964844 39.613281 1.242188 48.863281 1.242188 C 74.121094 1.242188 87.371094 -16.839844 87.371094 -37.128906 C 87.371094 -57.558594 74.949219 -75.914062 49 -75.914062 C 39.613281 -75.914062 29.125 -72.878906 23.742188 -64.734375 L 23.742188 -74.671875 L 10.214844 -74.671875 Z M 23.742188 -37.40625 C 23.742188 -55.210938 36.4375 -64.042969 49 -64.042969 C 65.425781 -64.042969 73.84375 -50.933594 73.84375 -37.40625 C 73.84375 -24.015625 65.425781 -10.765625 48.863281 -10.765625 C 36.300781 -10.765625 23.742188 -19.601562 23.742188 -37.40625 Z M 23.742188 -37.40625 "/></g></g></g><g fill="#000000" fill-opacity="1"><g transform="translate(128.774139, 169.561252)"><g><path d="M 10.351562 0 L 23.878906 0 L 23.878906 -96.621094 L 10.351562 -96.621094 Z M 10.351562 0 "/></g></g></g><g fill="#000000" fill-opacity="1"><g transform="translate(163.004312, 169.561252)"><g><path d="M 65.425781 -9.800781 L 65.425781 0 L 78.261719 0 L 78.261719 -75.363281 L 64.734375 -75.363281 L 64.734375 -34.09375 C 64.734375 -20.980469 57.003906 -10.902344 42.789062 -10.902344 C 26.5 -10.902344 22.914062 -20.566406 22.914062 -34.507812 L 22.914062 -75.363281 L 9.386719 -75.363281 L 9.386719 -34.507812 C 9.386719 -13.113281 19.1875 1.105469 41.824219 1.105469 C 51.484375 1.105469 59.902344 -1.65625 65.425781 -9.800781 Z M 65.425781 -9.800781 "/></g></g></g><g fill="#000000" fill-opacity="1"><g transform="translate(251.892325, 169.561252)"><g><path d="M 23.878906 -65.425781 L 23.878906 -74.671875 L 10.351562 -74.671875 L 10.351562 0 L 23.878906 0 L 23.878906 -40.578125 C 23.878906 -53.554688 31.609375 -63.769531 45.824219 -63.769531 C 62.113281 -63.769531 65.839844 -54.105469 65.839844 -40.027344 L 65.839844 0 L 79.226562 0 L 79.226562 -40.164062 C 79.226562 -61.558594 69.566406 -75.777344 46.792969 -75.777344 C 37.40625 -75.777344 29.398438 -73.429688 23.878906 -65.425781 Z M 23.878906 -65.425781 "/></g></g></g><g fill="#000000" fill-opacity="1"><g transform="translate(65.759247, 301.436753)"><g><path d="M 83.78125 -96.621094 L 70.257812 -96.621094 L 70.257812 -65.011719 C 63.769531 -73.84375 54.382812 -75.914062 45.136719 -75.914062 C 19.875 -75.914062 5.519531 -59.074219 5.519531 -37.679688 C 5.519531 -15.460938 19.1875 1.242188 45.273438 1.242188 C 54.660156 1.105469 64.871094 -1.933594 70.257812 -10.074219 L 70.257812 0 L 83.78125 0 Z M 70.257812 -37.40625 C 70.257812 -19.460938 57.695312 -10.765625 44.996094 -10.765625 C 28.570312 -10.765625 19.046875 -22.085938 19.046875 -37.40625 C 19.046875 -50.792969 28.570312 -64.042969 45.136719 -64.042969 C 57.695312 -64.042969 70.257812 -55.210938 70.257812 -37.40625 Z M 70.257812 -37.40625 "/></g></g></g><g fill="#000000" fill-opacity="1"><g transform="translate(160.168261, 301.436753)"><g><path d="M 83.644531 -40.578125 C 82.125 -64.042969 63.90625 -75.777344 45.410156 -75.777344 C 25.671875 -75.777344 6.625 -62.941406 6.625 -37.265625 C 6.625 -11.59375 25.949219 1.378906 45.136719 1.378906 C 60.457031 1.378906 75.777344 -6.761719 81.4375 -23.050781 L 67.496094 -23.050781 C 63.078125 -14.632812 54.519531 -10.628906 45.273438 -10.628906 C 34.09375 -10.628906 20.152344 -19.460938 20.152344 -34.09375 L 83.367188 -34.09375 C 83.644531 -35.335938 83.78125 -36.714844 83.78125 -38.234375 C 83.78125 -39.0625 83.78125 -39.75 83.644531 -40.578125 Z M 69.429688 -45.273438 L 20.703125 -45.273438 C 23.464844 -58.523438 34.507812 -63.90625 45.410156 -63.90625 C 56.175781 -63.90625 66.804688 -58.660156 69.429688 -45.273438 Z M 69.429688 -45.273438 "/></g></g></g><g fill="#000000" fill-opacity="1"><g transform="translate(251.264672, 301.436753)"><g><path d="M 23.742188 -65.425781 L 23.742188 -74.535156 L 10.351562 -74.535156 L 10.351562 0 L 23.742188 0 L 23.742188 -40.441406 C 23.742188 -54.105469 34.230469 -64.183594 46.792969 -64.183594 C 49 -64.183594 51.347656 -63.90625 53.691406 -63.214844 L 53.691406 -75.085938 C 50.65625 -75.777344 47.757812 -76.191406 44.859375 -76.191406 C 36.578125 -76.191406 29.125 -72.878906 23.742188 -65.425781 Z M 23.742188 -65.425781 "/></g></g></g></svg>
